<svg width="26" height="26" viewBox="0 0 26 26" fill="none" xmlns="http://www.w3.org/2000/svg">
<g id="Paypass / Solid">
<g id="Vector">
<path d="M3.49365 9.99375C3.81865 10.4 4.0624 10.8875 4.2249 11.375C4.3874 11.8625 4.46865 12.4313 4.46865 13C4.46865 13.5688 4.3874 14.1375 4.2249 14.625C4.0624 15.1125 3.81865 15.6 3.49365 16.0063C3.0874 16.575 3.16865 17.3875 3.7374 17.7938C4.30615 18.2 5.11865 18.1188 5.5249 17.55C6.0124 16.9 6.3374 16.25 6.6624 15.4375C6.9874 14.625 7.06865 13.8125 7.06865 13C7.06865 12.1875 6.90615 11.375 6.6624 10.5625C6.41865 9.83125 6.0124 9.1 5.5249 8.45C5.11865 7.88125 4.30615 7.8 3.7374 8.20625C3.16865 8.6125 3.0874 9.425 3.49365 9.99375Z" fill="#D3E1F5"/>
<path d="M7.9624 7.6375C8.9374 9.18125 9.50615 11.05 9.50615 13C9.50615 14.95 8.9374 16.8187 7.9624 18.3625C7.55615 18.9312 7.7999 19.7437 8.36865 20.15C9.01865 20.5562 9.7499 20.3125 10.1562 19.7437C11.3749 17.7937 12.1062 15.5187 12.1062 13C12.1062 10.5625 11.3749 8.20625 10.1562 6.25625C9.7499 5.6875 8.9374 5.44375 8.36865 5.85C7.7999 6.25625 7.55615 6.9875 7.9624 7.6375Z" fill="#D3E1F5"/>
<path d="M12.6749 5.2C14.0561 7.475 14.7874 10.1562 14.7874 13C14.7874 15.8437 13.9749 18.525 12.6749 20.8C12.3499 21.45 12.5124 22.1812 13.1624 22.5875C13.8124 22.9125 14.5436 22.75 14.9499 22.1C16.5749 19.4188 17.4686 16.3313 17.4686 13C17.4686 9.66875 16.5749 6.58125 14.9499 3.9C14.6249 3.25 13.8124 3.0875 13.1624 3.4125C12.5124 3.81875 12.3499 4.55 12.6749 5.2Z" fill="#D3E1F5"/>
<path d="M17.3874 2.7625C19.0936 5.76875 20.1499 9.2625 20.1499 13C20.1499 16.7375 19.1749 20.2313 17.3874 23.2375C17.0624 23.8875 17.2249 24.6187 17.8749 25.025C18.5249 25.35 19.2561 25.1875 19.6624 24.5375C21.6124 21.125 22.7499 17.225 22.7499 13C22.7499 8.775 21.6124 4.875 19.6624 1.4625C19.3374 0.8125 18.5249 0.65 17.8749 0.975C17.2249 1.3 17.0624 2.1125 17.3874 2.7625Z" fill="#D3E1F5"/>
</g>
</g>
</svg>
