<svg width="234" height="18" viewBox="0 0 234 18" fill="none" xmlns="http://www.w3.org/2000/svg">
<g id="2320 3000 0000 1" filter="url(#filter0_d_41_1077)">
<path d="M6.12333 14.8149V-3.58512e-08L1.86251 -6.03556e-09C1.41401 -2.89707e-09 1 0.305912 1 1.09255C1 1.87918 1.41401 2.18509 1.86251 2.18509L4.3983 2.18509V14.8149L1.86251 14.8149C1.41401 14.8149 1 15.1208 1 15.9075C1 16.6941 1.41401 17 1.86251 17L8.65911 17C9.10762 17 9.52163 16.6941 9.52163 15.9075V10.401C9.52163 9.76735 9.29737 9.30848 8.65911 9.30848C8.02086 9.30848 7.7966 9.76735 7.7966 10.401V14.8149L6.12333 14.8149Z" fill="#D3E1F5"/>
<path d="M15.1405 9.59255L20.0051 9.59255C20.5743 9.59255 20.9711 9.48329 21.4023 8.98072C21.8853 8.4126 21.9371 7.82262 21.9371 7.03599V2.55656C21.9371 1.76992 21.8853 1.17995 21.4023 0.611825C20.9711 0.109254 20.5743 -1.36974e-07 20.0051 -1.32991e-07L14.278 -9.29146e-08C13.8295 -8.97762e-08 13.4155 0.305912 13.4155 1.09255C13.4155 1.87918 13.8295 2.18509 14.278 2.18509L20.2121 2.18509V7.40746L15.3647 7.40746C14.071 7.40746 13.4155 8.23779 13.4155 9.87661V17L21.0746 17C21.5231 17 21.9371 16.6941 21.9371 15.9075C21.9371 15.1208 21.5231 14.8149 21.0746 14.8149L15.1405 14.8149V9.59255Z" fill="#D3E1F5"/>
<path d="M32.6275 2.18509V5.81234C32.6275 7.03599 32.248 7.40746 31.765 7.40746L28.384 7.40746C27.9355 7.40746 27.5215 7.71337 27.5215 8.5C27.5215 9.28663 27.9355 9.59255 28.384 9.59255L31.765 9.59255C32.248 9.59255 32.6275 9.96401 32.6275 11.1877V14.8149L26.6934 14.8149C26.2449 14.8149 25.8309 15.1208 25.8309 15.9075C25.8309 16.6941 26.2449 17 26.6934 17L32.6275 17C33.6108 17 34.3526 16.0604 34.3526 14.8149V10.6195C34.3526 9.7455 34.2146 9.11183 33.6798 8.5C34.2146 7.88818 34.3526 7.2545 34.3526 6.38046V2.18509C34.3526 0.93959 33.6108 -2.28199e-07 32.6275 -2.21318e-07L26.6934 -1.79794e-07C26.2449 -1.76655e-07 25.8309 0.305912 25.8309 1.09255C25.8309 1.87918 26.2449 2.18509 26.6934 2.18509L32.6275 2.18509Z" fill="#D3E1F5"/>
<path d="M40.8339 9.26478V1.09254C40.8339 0.546273 40.6269 -2.77295e-07 39.9714 -2.72708e-07C39.3159 -2.68121e-07 39.1089 0.546273 39.1089 1.09255V11.4499L44.1805 11.4499V15.9075C44.1805 16.6067 44.422 17 45.043 17C45.664 17 45.9055 16.6067 45.9055 15.9075V11.4499C46.354 11.4499 46.768 11.144 46.768 10.3573C46.768 9.5707 46.354 9.26478 45.9055 9.26478V2.94987C45.9055 2.4036 45.6985 1.85733 45.043 1.85733C44.3875 1.85733 44.1805 2.4036 44.1805 2.94987V9.26478L40.8339 9.26478Z" fill="#D3E1F5"/>
<path d="M66.5101 2.18509L70.7365 2.18509C71.185 2.18509 71.599 1.87918 71.599 1.09254C71.599 0.305912 71.185 -4.9113e-07 70.7365 -4.87991e-07L64.7851 -4.46346e-07V9.59255L69.8739 9.59255V14.8149L65.8891 14.8149C65.6131 14.8149 65.2164 14.509 64.9749 14.3779L64.4574 14.0938C64.2676 13.9846 64.1124 13.919 63.9053 13.919C63.4568 13.919 63.0773 14.4434 63.0773 15.0116C63.0773 15.7764 63.5948 15.973 64.0606 16.2352L64.7161 16.6067C65.1474 16.847 65.4061 17 65.8546 17L69.6842 17C70.3052 17 70.7537 16.9126 71.185 16.2571C71.5472 15.7108 71.599 15.2301 71.599 14.5527V9.87661C71.599 9.11183 71.5472 8.5874 71.0642 8.01928C70.6502 7.51671 70.2362 7.40746 69.6842 7.40746L66.5101 7.40746V2.18509Z" fill="#D3E1F5"/>
<path d="M77.2178 2.18509C77.7181 2.18509 78.0803 1.74807 78.0803 1.09254C78.0803 0.524422 77.7181 -5.36846e-07 77.2696 -5.33708e-07L76.2346 -5.26465e-07C75.6308 -5.2224e-07 75.4928 0.589974 75.4928 1.09254V15.6234C75.4928 16.6285 75.8033 17 76.6141 17L82.8932 17C83.6694 17 84.0144 16.6504 84.0144 15.6234V10.7288C84.0144 9.72365 83.8419 9.26478 82.9794 9.26478L77.2178 9.26478V2.18509ZM82.2894 11.4499V14.8149L77.2178 14.8149V11.4499L82.2894 11.4499Z" fill="#D3E1F5"/>
<path d="M94.7049 2.18509V5.20051C94.7049 6.16195 94.7394 6.1401 94.1701 6.77378L91.7896 9.37404C91.3583 9.85476 91.3411 9.92031 91.3411 10.6414V15.9075C91.3411 16.6067 91.5826 17 92.2036 17C92.8246 17 93.0661 16.6067 93.0661 15.9075V11.6684C93.0661 10.9036 93.1006 10.8599 93.5491 10.3573L95.9641 7.71337C96.4471 7.18895 96.4299 7.10154 96.4299 6.33676V-6.67785e-07L88.7708 -6.14189e-07C88.2188 -6.10326e-07 87.9083 0.611825 87.9083 1.09254V2.18509C87.9083 2.66581 88.2188 3.27764 88.7708 3.27764C89.3228 3.27764 89.6333 2.66581 89.6333 2.18509L94.7049 2.18509Z" fill="#D3E1F5"/>
<path d="M103.774 7.40746V2.18509L105.395 2.18509V7.40746L103.774 7.40746ZM102.911 -7.13139e-07C102.325 -7.09035e-07 102.049 0.524422 102.049 1.09254V7.40746C101.514 7.40746 101.1 7.64782 100.789 8.01928C100.479 8.39075 100.324 8.93702 100.324 9.6144V14.8149C100.324 16.1478 100.979 17 102.049 17L107.12 17C108.19 17 108.845 16.1478 108.845 14.8149V9.6144C108.845 8.93702 108.69 8.39075 108.38 8.01928C108.069 7.64782 107.655 7.40746 107.12 7.40746V1.09254C107.12 0.524422 106.844 -7.40661e-07 106.258 -7.36557e-07L102.911 -7.13139e-07ZM102.049 14.8149V9.59255L107.12 9.59255V14.8149L102.049 14.8149Z" fill="#D3E1F5"/>
<path d="M131.951 14.8149C131.451 14.8149 131.089 15.2519 131.089 15.9075C131.089 16.4974 131.434 17 131.951 17L132.814 17C133.331 17 133.676 16.4974 133.676 15.9075V1.09254C133.676 0.524422 133.297 -9.25767e-07 132.814 -9.22387e-07L126.017 -8.74826e-07C125.534 -8.71446e-07 125.155 0.524422 125.155 1.09254V6.68638C125.155 7.2545 125.534 7.77892 126.017 7.77892L131.951 7.77892V14.8149ZM126.88 5.59383V2.18509L131.951 2.18509V5.59383L126.88 5.59383Z" fill="#D3E1F5"/>
<path d="M139.295 -9.67741e-07C138.346 -9.61102e-07 137.57 0.98329 137.57 2.18509V14.8149C137.57 16.0386 138.312 17 139.295 17L144.367 17C145.35 17 146.092 16.0386 146.092 14.8149V2.18509C146.092 0.98329 145.315 -1.00987e-06 144.367 -1.00323e-06L139.295 -9.67741e-07ZM139.295 14.8149V2.18509L144.367 2.18509V14.8149L139.295 14.8149Z" fill="#D3E1F5"/>
<path d="M151.711 -1.05462e-06C150.762 -1.04798e-06 149.986 0.98329 149.986 2.18509V14.8149C149.986 16.0386 150.727 17 151.711 17L156.782 17C157.765 17 158.507 16.0386 158.507 14.8149V2.18509C158.507 0.98329 157.731 -1.09675e-06 156.782 -1.09011e-06L151.711 -1.05462e-06ZM151.711 14.8149V2.18509L156.782 2.18509V14.8149L151.711 14.8149Z" fill="#D3E1F5"/>
<path d="M164.126 -1.1415e-06C163.177 -1.13486e-06 162.401 0.98329 162.401 2.18509V14.8149C162.401 16.0386 163.143 17 164.126 17L169.198 17C170.181 17 170.923 16.0386 170.923 14.8149V2.18509C170.923 0.98329 170.146 -1.18363e-06 169.198 -1.17699e-06L164.126 -1.1415e-06ZM164.126 14.8149V2.18509L169.198 2.18509V14.8149L164.126 14.8149Z" fill="#D3E1F5"/>
<path d="M188.957 -1.31526e-06C188.008 -1.30862e-06 187.232 0.98329 187.232 2.18509V14.8149C187.232 16.0386 187.974 17 188.957 17L194.029 17C195.012 17 195.754 16.0386 195.754 14.8149V2.18509C195.754 0.98329 194.977 -1.35739e-06 194.029 -1.35075e-06L188.957 -1.31526e-06ZM188.957 14.8149V2.18509L194.029 2.18509V14.8149L188.957 14.8149Z" fill="#D3E1F5"/>
<path d="M201.372 -1.40214e-06C200.424 -1.3955e-06 199.647 0.98329 199.647 2.18509V14.8149C199.647 16.0386 200.389 17 201.372 17L206.444 17C207.427 17 208.169 16.0386 208.169 14.8149V2.18509C208.169 0.98329 207.393 -1.44426e-06 206.444 -1.43763e-06L201.372 -1.40214e-06ZM201.372 14.8149V2.18509L206.444 2.18509V14.8149L201.372 14.8149Z" fill="#D3E1F5"/>
<path d="M213.788 -1.48902e-06C212.839 -1.48238e-06 212.063 0.983289 212.063 2.18509V14.8149C212.063 16.0386 212.805 17 213.788 17L218.859 17C219.843 17 220.585 16.0386 220.585 14.8149V2.18509C220.585 0.983289 219.808 -1.53114e-06 218.859 -1.5245e-06L213.788 -1.48902e-06ZM213.788 14.8149V2.18509L218.859 2.18509V14.8149L213.788 14.8149Z" fill="#D3E1F5"/>
<path d="M226.203 -1.57589e-06C225.255 -1.56926e-06 224.478 0.983289 224.478 2.18509V14.8149C224.478 16.0386 225.22 17 226.203 17L231.275 17C232.258 17 233 16.0386 233 14.8149V2.18509C233 0.983289 232.224 -1.61802e-06 231.275 -1.61138e-06L226.203 -1.57589e-06ZM226.203 14.8149V2.18509L231.275 2.18509V14.8149L226.203 14.8149Z" fill="#D3E1F5"/>
</g>
<defs>
<filter id="filter0_d_41_1077" x="0.755814" y="0" width="232.488" height="17.7326" filterUnits="userSpaceOnUse" color-interpolation-filters="sRGB">
<feFlood flood-opacity="0" result="BackgroundImageFix"/>
<feColorMatrix in="SourceAlpha" type="matrix" values="0 0 0 0 0 0 0 0 0 0 0 0 0 0 0 0 0 0 127 0" result="hardAlpha"/>
<feOffset dy="0.488372"/>
<feGaussianBlur stdDeviation="0.122093"/>
<feColorMatrix type="matrix" values="0 0 0 0 1 0 0 0 0 1 0 0 0 0 1 0 0 0 0.31 0"/>
<feBlend mode="normal" in2="BackgroundImageFix" result="effect1_dropShadow_41_1077"/>
<feBlend mode="normal" in="SourceGraphic" in2="effect1_dropShadow_41_1077" result="shape"/>
</filter>
</defs>
</svg>
