<svg width="62" height="21" viewBox="0 0 62 21" fill="none" xmlns="http://www.w3.org/2000/svg">
<path id="Vector" d="M0.649414 8.84656L5.15838 8.84656C5.967 4.25784 9.69849 0.566406 14.456 0.566406C19.8663 0.566406 23.6602 4.69021 23.6602 10.9084C23.6602 11.5732 23.5978 12.1056 23.5355 12.5713L8.98261 12.5713C9.66662 15.398 11.8432 17.0609 14.4552 17.0609C16.6941 17.0609 18.3729 16.1294 19.7105 14.5007L22.3849 17.1275C20.6126 19.2885 17.9694 20.7856 14.4552 20.7856C9.69778 20.7856 5.96625 17.1608 5.15763 12.5721L0.649414 12.5721V8.84656ZM19.804 8.84656C19.617 7.68273 19.12 6.61883 18.4049 5.85405C17.4724 4.85602 16.1037 4.22452 14.456 4.22452C12.8083 4.22452 11.4708 4.82351 10.476 5.88737C9.79196 6.61883 9.23188 7.61687 8.95223 8.84732L19.804 8.84732V8.84656ZM26.365 0.699695L30.2826 0.699695V16.6617L37.3725 16.6617V20.6523L30.3449 20.6523C27.7641 20.6523 26.365 19.1561 26.365 16.396V0.699695ZM38.1196 10.676C38.1196 5.25588 42.2554 0.567218 47.728 0.567218C52.579 0.567218 56.372 4.22533 57.1807 8.84732L61.6896 8.84732V12.5721L57.1807 12.5721C56.3409 17.1608 52.547 20.7856 47.728 20.7856C42.2242 20.7848 38.1196 16.1294 38.1196 10.676ZM47.728 16.8609C50.9929 16.8609 53.418 14.2008 53.418 10.7093C53.418 7.25114 50.9306 4.49028 47.728 4.49028C44.4631 4.49028 42.0372 7.15036 42.0372 10.6752C42.0372 14.1008 44.5254 16.8609 47.728 16.8609Z" fill="white"/>
</svg>
