<svg width="29" height="29" viewBox="0 0 29 29" fill="none" xmlns="http://www.w3.org/2000/svg">
<g id="Frame">
<g id="Vector (Stroke)">
<path fill-rule="evenodd" clip-rule="evenodd" d="M3.45317 3.33769C3.80279 3.03447 4.30065 2.97171 4.71459 3.17868L25.3107 13.4768C25.6984 13.6706 25.9433 14.0668 25.9433 14.5002C25.9433 14.9336 25.6984 15.3298 25.3107 15.5236L4.71459 25.8217C4.30065 26.0287 3.80279 25.9659 3.45317 25.6627C3.10355 25.3595 2.97101 24.8755 3.11736 24.4364L6.42944 14.5002L3.11736 4.56395C2.97101 4.1249 3.10355 3.64092 3.45317 3.33769ZM8.46028 15.6444L6.16194 22.5394L22.2404 14.5002L6.16194 6.46093L8.46028 13.356H14.5009C15.1329 13.356 15.6452 13.8682 15.6452 14.5002C15.6452 15.1321 15.1329 15.6444 14.5009 15.6444H8.46028Z" fill="url(#paint0_linear_41_1112)" fill-opacity="0.2"/>
<path fill-rule="evenodd" clip-rule="evenodd" d="M3.45317 3.33769C3.80279 3.03447 4.30065 2.97171 4.71459 3.17868L25.3107 13.4768C25.6984 13.6706 25.9433 14.0668 25.9433 14.5002C25.9433 14.9336 25.6984 15.3298 25.3107 15.5236L4.71459 25.8217C4.30065 26.0287 3.80279 25.9659 3.45317 25.6627C3.10355 25.3595 2.97101 24.8755 3.11736 24.4364L6.42944 14.5002L3.11736 4.56395C2.97101 4.1249 3.10355 3.64092 3.45317 3.33769ZM8.46028 15.6444L6.16194 22.5394L22.2404 14.5002L6.16194 6.46093L8.46028 13.356H14.5009C15.1329 13.356 15.6452 13.8682 15.6452 14.5002C15.6452 15.1321 15.1329 15.6444 14.5009 15.6444H8.46028Z" fill="#FAFBFC"/>
</g>
</g>
<defs>
<linearGradient id="paint0_linear_41_1112" x1="3.05859" y1="14.5002" x2="25.9433" y2="14.5002" gradientUnits="userSpaceOnUse">
<stop stop-color="#F0F0F0"/>
<stop offset="1" stop-color="#F0F0F0" stop-opacity="0"/>
</linearGradient>
</defs>
</svg>
