<svg width="20" height="27" viewBox="0 0 20 27" fill="none" xmlns="http://www.w3.org/2000/svg">
<g id="lit">
<path id="Vector" d="M11.146 11.1829H18.4374L10.3401 20.7104L10.3399 20.7105L9.6154 21.5622L9.61525 21.5624L7.06949 24.5577L7.69719 22.0539L7.69721 22.0538L9.18268 16.1323L9.33863 15.5106H8.69771H1.40639L9.50447 5.98307L9.50448 5.98307L12.7734 2.13721L10.661 10.5613L10.5051 11.1829H11.146Z" stroke="#00B766"/>
<path id="Vector_2" d="M10.655 11.1807H18.4382L11.7303 19.0822L11.7949 18.8254L11.7949 18.8253C11.8937 18.4319 11.9009 18.0213 11.8161 17.6247C11.7312 17.2282 11.5566 16.8562 11.3056 16.5372C11.0547 16.2182 10.7341 15.9604 10.3684 15.7833C10.0027 15.6061 9.60141 15.5142 9.19488 15.5143C9.19483 15.5143 9.19479 15.5143 9.19474 15.5143H1.40586L8.12044 7.60848L8.0549 7.86984L8.05465 7.87087C7.95696 8.26402 7.95047 8.67413 8.03569 9.07015L8.5245 8.96496L8.03569 9.07015C8.12091 9.46616 8.29556 9.83751 8.54621 10.1562C8.79685 10.4749 9.1169 10.7325 9.482 10.9099C9.84709 11.0873 10.2478 11.1798 10.6539 11.1807H10.655Z" stroke="#00B766"/>
</g>
</svg>
