<svg width="28" height="28" viewBox="0 0 28 28" fill="none" xmlns="http://www.w3.org/2000/svg">
<g id="Nut">
<path id="Vector" d="M24.0625 19.1733V8.82646C24.0617 8.67068 24.0198 8.51788 23.941 8.38346C23.8623 8.24904 23.7495 8.13776 23.6141 8.06083L14.4266 2.86552C14.2969 2.79064 14.1498 2.75122 14 2.75122C13.8502 2.75122 13.7031 2.79064 13.5734 2.86552L4.38594 8.06083C4.25048 8.13776 4.13769 8.24904 4.05896 8.38346C3.98023 8.51788 3.93834 8.67068 3.9375 8.82646V19.1733C3.93834 19.3291 3.98023 19.4819 4.05896 19.6163C4.13769 19.7507 4.25048 19.862 4.38594 19.939L13.5734 25.1343C13.7031 25.2091 13.8502 25.2486 14 25.2486C14.1498 25.2486 14.2969 25.2091 14.4266 25.1343L23.6141 19.939C23.7495 19.862 23.8623 19.7507 23.941 19.6163C24.0198 19.4819 24.0617 19.3291 24.0625 19.1733V19.1733Z" stroke="#173F37" stroke-width="1.5" stroke-linecap="round" stroke-linejoin="round"/>
<path id="Vector_2" d="M14 17.9375C16.1746 17.9375 17.9375 16.1746 17.9375 14C17.9375 11.8254 16.1746 10.0625 14 10.0625C11.8254 10.0625 10.0625 11.8254 10.0625 14C10.0625 16.1746 11.8254 17.9375 14 17.9375Z" stroke="#2E335B" stroke-width="1.5" stroke-linecap="round" stroke-linejoin="round"/>
</g>
</svg>
