<svg width="28" height="28" viewBox="0 0 28 28" fill="none" xmlns="http://www.w3.org/2000/svg">
<g id="UserCircle">
<path id="Vector" d="M14 24.5C19.799 24.5 24.5 19.799 24.5 14C24.5 8.20101 19.799 3.5 14 3.5C8.20101 3.5 3.5 8.20101 3.5 14C3.5 19.799 8.20101 24.5 14 24.5Z" stroke="#173F37" stroke-width="1.5" stroke-linecap="round" stroke-linejoin="round"/>
<path id="Vector_2" d="M14 17.5C16.4162 17.5 18.375 15.5412 18.375 13.125C18.375 10.7088 16.4162 8.75 14 8.75C11.5838 8.75 9.625 10.7088 9.625 13.125C9.625 15.5412 11.5838 17.5 14 17.5Z" stroke="#173F37" stroke-width="1.5" stroke-linecap="round" stroke-linejoin="round"/>
<path id="Vector_3" d="M6.97803 21.8093C7.63637 20.5126 8.64092 19.4235 9.88034 18.6627C11.1198 17.902 12.5456 17.4993 13.9999 17.4993C15.4542 17.4993 16.88 17.902 18.1195 18.6627C19.3589 19.4235 20.3634 20.5126 21.0218 21.8093" stroke="#173F37" stroke-width="1.5" stroke-linecap="round" stroke-linejoin="round"/>
</g>
</svg>
