<svg width="40" height="13" viewBox="0 0 40 13" fill="none" xmlns="http://www.w3.org/2000/svg">
<path id="Vector" d="M0.000488281 5.32375H2.95524C3.48513 2.37342 5.9304 0 9.04802 0C12.5934 0 15.0796 2.65142 15.0796 6.64943C15.0796 7.07689 15.0387 7.41919 14.9979 7.71859H5.46128C5.90951 9.536 7.33584 10.6052 9.04751 10.6052C10.5147 10.6052 11.6148 10.0063 12.4913 8.9591L14.2439 10.648C13.0825 12.0375 11.3504 13 9.04751 13C5.92993 13 3.48464 10.6694 2.95474 7.71913H0.000488281V5.32375ZM12.5526 5.32375C12.4301 4.57547 12.1044 3.89143 11.6357 3.39971C11.0247 2.75802 10.1277 2.352 9.04802 2.352C7.9683 2.352 7.09179 2.73712 6.43988 3.42113C5.99165 3.89143 5.62463 4.53312 5.44137 5.32424L12.5526 5.32375ZM16.852 0.0856982H19.4193V10.3486H24.0653V12.9143H19.4601C17.7689 12.9143 16.852 11.9523 16.852 10.1777V0.0856982ZM24.5549 6.49999C24.5549 3.01511 27.2651 0.000522198 30.8514 0.000522198C34.0302 0.000522198 36.5158 2.35252 37.0457 5.32424H40.0005V7.71913H37.0457C36.4954 10.6694 34.0093 13 30.8514 13C27.2447 12.9995 24.5549 10.0063 24.5549 6.49999ZM30.8514 10.4766C32.9909 10.4766 34.58 8.76628 34.58 6.52142C34.58 4.29797 32.95 2.52287 30.8514 2.52287C28.7118 2.52287 27.1222 4.23318 27.1222 6.49946C27.1222 8.70201 28.7527 10.4766 30.8514 10.4766Z" fill="#173F37"/>
</svg>
