<svg width="32" height="33" viewBox="0 0 32 33" fill="none" xmlns="http://www.w3.org/2000/svg">
<g id="Barbell">
<path id="Vector" d="M11 7.21875H8C7.44772 7.21875 7 7.68046 7 8.25V24.75C7 25.3195 7.44772 25.7812 8 25.7812H11C11.5523 25.7812 12 25.3195 12 24.75V8.25C12 7.68046 11.5523 7.21875 11 7.21875Z" stroke="#173F37" stroke-width="2" stroke-linecap="round" stroke-linejoin="round"/>
<path id="Vector_2" d="M24 7.21875H21C20.4477 7.21875 20 7.68046 20 8.25V24.75C20 25.3195 20.4477 25.7812 21 25.7812H24C24.5523 25.7812 25 25.3195 25 24.75V8.25C25 7.68046 24.5523 7.21875 24 7.21875Z" stroke="#173F37" stroke-width="2" stroke-linecap="round" stroke-linejoin="round"/>
<path id="Vector_3" d="M25 10.3125H28C28.2652 10.3125 28.5196 10.4211 28.7071 10.6145C28.8946 10.8079 29 11.0702 29 11.3438V21.6562C29 21.9298 28.8946 22.1921 28.7071 22.3855C28.5196 22.5789 28.2652 22.6875 28 22.6875H25" stroke="#173F37" stroke-width="2" stroke-linecap="round" stroke-linejoin="round"/>
<path id="Vector_4" d="M7 22.6875H4C3.73478 22.6875 3.48043 22.5789 3.29289 22.3855C3.10536 22.1921 3 21.9298 3 21.6562V11.3438C3 11.0702 3.10536 10.8079 3.29289 10.6145C3.48043 10.4211 3.73478 10.3125 4 10.3125H7" stroke="#173F37" stroke-width="2" stroke-linecap="round" stroke-linejoin="round"/>
<path id="Vector_5" d="M12 16.5H20" stroke="#173F37" stroke-width="2" stroke-linecap="round" stroke-linejoin="round"/>
<path id="Vector_6" d="M29 16.5H31" stroke="#173F37" stroke-width="2" stroke-linecap="round" stroke-linejoin="round"/>
<path id="Vector_7" d="M1 16.5H3" stroke="#173F37" stroke-width="2" stroke-linecap="round" stroke-linejoin="round"/>
</g>
</svg>
