<svg width="28" height="28" viewBox="0 0 28 28" fill="none" xmlns="http://www.w3.org/2000/svg">
<g id="ChatsCircle">
<path id="Vector" d="M3.72961 15.3891C2.74891 13.7368 2.40516 11.7834 2.76294 9.89557C3.12071 8.00778 4.15539 6.31556 5.67264 5.13672C7.18989 3.95788 9.08533 3.37352 11.003 3.4934C12.9206 3.61328 14.7285 4.42915 16.0872 5.78777C17.4458 7.1464 18.2617 8.95431 18.3815 10.872C18.5014 12.7896 17.9171 14.685 16.7382 16.2023C15.5594 17.7195 13.8671 18.7542 11.9794 19.112C10.0916 19.4698 8.13812 19.126 6.48586 18.1453L3.76242 18.9219C3.65021 18.9534 3.53162 18.9545 3.41885 18.925C3.30608 18.8956 3.20319 18.8366 3.12077 18.7542C3.03834 18.6717 2.97936 18.5689 2.94989 18.4561C2.92041 18.3433 2.9215 18.2247 2.95305 18.1125L3.72961 15.3891Z" stroke="#173F37" stroke-width="1.5" stroke-linecap="round" stroke-linejoin="round"/>
<path id="Vector_2" d="M10.0737 19.2389C10.4592 20.3379 11.084 21.3376 11.903 22.1658C12.722 22.9939 13.7147 23.6298 14.8094 24.0275C15.9041 24.4252 17.0734 24.5747 18.233 24.4654C19.3925 24.356 20.5133 23.9905 21.5144 23.3951V23.3951L24.2378 24.1717C24.35 24.2032 24.4686 24.2043 24.5814 24.1748C24.6941 24.1454 24.797 24.0864 24.8794 24.004C24.9619 23.9215 25.0209 23.8187 25.0503 23.7059C25.0798 23.5931 25.0787 23.4745 25.0472 23.3623L24.2706 20.6389C24.9639 19.4751 25.3448 18.152 25.3765 16.7978C25.4082 15.4436 25.0895 14.1041 24.4513 12.9093C23.8132 11.7144 22.8772 10.7046 21.7341 9.97781C20.591 9.25099 19.2796 8.83176 17.9269 8.76074" stroke="#173F37" stroke-width="1.5" stroke-linecap="round" stroke-linejoin="round"/>
</g>
</svg>
