<svg width="29" height="28" viewBox="0 0 29 28" fill="none" xmlns="http://www.w3.org/2000/svg">
<g id="Coins">
<path id="Vector" d="M10.875 13.125C15.8801 13.125 19.9375 11.3621 19.9375 9.1875C19.9375 7.01288 15.8801 5.25 10.875 5.25C5.86992 5.25 1.8125 7.01288 1.8125 9.1875C1.8125 11.3621 5.86992 13.125 10.875 13.125Z" stroke="white" stroke-width="1.75" stroke-linecap="round" stroke-linejoin="round"/>
<path id="Vector_2" d="M1.8125 9.1875V13.5625C1.8125 15.7391 5.86797 17.5 10.875 17.5C15.882 17.5 19.9375 15.7391 19.9375 13.5625V9.1875" stroke="white" stroke-width="1.75" stroke-linecap="round" stroke-linejoin="round"/>
<path id="Vector_3" d="M7.25 12.7969V17.1719" stroke="white" stroke-width="1.75" stroke-linecap="round" stroke-linejoin="round"/>
<path id="Vector_4" d="M19.9375 10.5767C24.0723 10.9485 27.1875 12.5345 27.1875 14.4376C27.1875 16.6142 23.132 18.3751 18.125 18.3751C15.9047 18.3751 13.8656 18.0251 12.291 17.4563" stroke="white" stroke-width="1.75" stroke-linecap="round" stroke-linejoin="round"/>
<path id="Vector_5" d="M9.0625 17.4234V18.8125C9.0625 20.9891 13.118 22.75 18.125 22.75C23.132 22.75 27.1875 20.9891 27.1875 18.8125V14.4375" stroke="white" stroke-width="1.75" stroke-linecap="round" stroke-linejoin="round"/>
<path id="Vector_6" d="M21.75 18.0469V22.4219" stroke="white" stroke-width="1.75" stroke-linecap="round" stroke-linejoin="round"/>
<path id="Vector_7" d="M14.5 12.7969V22.4219" stroke="white" stroke-width="1.75" stroke-linecap="round" stroke-linejoin="round"/>
</g>
</svg>
