<svg width="24" height="24" viewBox="0 0 24 24" fill="none" xmlns="http://www.w3.org/2000/svg">
<g id="contactless-payment">
<path id="Vector" d="M17.0463 22.6431C16.6431 22.4799 16.3552 22.1152 16.288 21.6833C16.24 21.4337 16.288 21.2609 16.6719 20.5698C18.1117 17.9783 18.8508 15.0507 18.8124 12.0848C18.8508 9.20527 18.1501 6.39292 16.7679 3.86853C16.5664 3.44619 16.384 3.04306 16.2304 2.61113C16.288 2.24639 16.4704 1.91044 16.7679 1.70887C17.1999 1.47851 17.7278 1.5265 18.1213 1.79526C18.3901 2.14081 18.6204 2.48635 18.8124 2.88948C19.849 4.88596 20.5497 6.99762 20.8953 9.20527C21.116 10.9426 21.1448 12.7087 20.9816 14.4556C20.6841 16.7017 20.0218 18.8709 19.0044 20.8962C18.3901 22.1248 18.0445 22.6431 17.6798 22.6431C17.603 22.6431 17.5166 22.6431 17.4398 22.6431C17.3054 22.6431 17.1807 22.6431 17.0463 22.6431ZM12.8614 20.5218C12.3142 20.3683 11.9687 19.8116 12.0839 19.2548C12.0839 19.1397 12.3814 18.6118 12.6502 18.0742C13.7828 15.8954 14.2723 13.4382 14.0516 10.9906C13.9172 9.23406 13.4085 7.52554 12.5734 5.98019C11.9687 4.77078 11.9303 4.57881 12.2854 4.0605C12.7078 3.59017 13.4085 3.52298 13.9268 3.92612C14.6179 4.94355 15.165 6.05697 15.5681 7.22799C16.7967 10.8658 16.6047 14.83 15.0306 18.3238C14.2243 20.1379 13.658 20.7234 12.8614 20.4739V20.5218ZM8.54205 18.3814C8.1965 18.2278 7.93734 17.9207 7.84136 17.5559C7.84136 17.364 7.84136 17.1144 8.27329 16.3465C9.70346 13.7549 9.70346 10.6066 8.27329 8.01506C7.64939 6.80565 7.64939 6.55609 8.15811 6.09537C8.34048 5.8842 8.60924 5.77862 8.89719 5.81701C9.51149 5.81701 9.85704 6.11456 10.3754 7.19919C11.1912 8.69655 11.6136 10.3763 11.604 12.0848C11.6423 13.8221 11.22 15.5498 10.385 17.076C9.86663 18.0838 9.60748 18.3238 9.08916 18.4102C8.90679 18.4294 8.71482 18.4102 8.54205 18.3238V18.3814ZM4.5011 16.3369C4.18435 16.1833 3.93479 15.9242 3.81001 15.5882C3.71403 15.2523 3.81001 14.9643 4.19395 14.35C4.67387 13.6973 4.90423 12.8911 4.85624 12.0848C4.92343 11.2689 4.70267 10.4627 4.23234 9.79077C4.06917 9.55081 3.93479 9.29165 3.81001 9.03249C3.70443 8.42779 4.10756 7.85188 4.76986 7.7367C5.28817 7.64072 5.65291 7.86148 6.13284 8.59097C7.52461 10.7122 7.52461 13.4478 6.13284 15.569C5.64331 16.3081 5.0866 16.5289 4.5107 16.3369H4.5011Z" fill="white"/>
</g>
</svg>
