<svg width="78" height="32" viewBox="0 0 78 32" fill="none" xmlns="http://www.w3.org/2000/svg">
<path id="Rectangle 40375" opacity="0.3" d="M1.38672 16.0654C1.38672 12.6032 1.38762 10.0526 1.63126 8.08272C1.87342 6.12493 2.34867 4.80927 3.24917 3.78297C3.46425 3.53785 3.69508 3.30702 3.9402 3.09195C4.96649 2.19145 6.28216 1.71619 8.23995 1.47404C10.2098 1.23039 12.7604 1.22949 16.2226 1.22949H62.2304C65.6926 1.22949 68.2432 1.23039 70.2131 1.47404C72.1709 1.71619 73.4865 2.19145 74.5128 3.09195C74.7579 3.30702 74.9888 3.53785 75.2038 3.78297C76.1044 4.80927 76.5796 6.12493 76.8218 8.08272C77.0654 10.0526 77.0663 12.6032 77.0663 16.0654C77.0663 19.5276 77.0654 22.0782 76.8218 24.0481C76.5796 26.0059 76.1044 27.3216 75.2038 28.3479C74.9888 28.593 74.7579 28.8238 74.5128 29.0389C73.4865 29.9394 72.1709 30.4146 70.2131 30.6568C68.2432 30.9004 65.6926 30.9013 62.2304 30.9013H16.2226C12.7604 30.9013 10.2098 30.9004 8.23994 30.6568C6.28215 30.4146 4.96649 29.9394 3.9402 29.0389C3.69508 28.8238 3.46425 28.593 3.24917 28.3478C2.34867 27.3216 1.87342 26.0059 1.63126 24.0481C1.38762 22.0782 1.38672 19.5276 1.38672 16.0654Z" stroke="#2E335B"/>
</svg>
