<svg width="28" height="28" viewBox="0 0 28 28" fill="none" xmlns="http://www.w3.org/2000/svg">
<g id="StarFour">
<path id="Vector" d="M17.3576 17.8829L14.8201 24.861C14.758 25.0284 14.646 25.1729 14.4994 25.2749C14.3528 25.3768 14.1784 25.4315 13.9998 25.4315C13.8212 25.4315 13.6469 25.3768 13.5002 25.2749C13.3536 25.1729 13.2417 25.0284 13.1795 24.861L10.642 17.8829C10.5977 17.7626 10.5278 17.6534 10.4371 17.5627C10.3465 17.4721 10.2373 17.4022 10.117 17.3579L3.13887 14.8204C2.97142 14.7582 2.827 14.6463 2.72501 14.4997C2.62302 14.353 2.56836 14.1787 2.56836 14.0001C2.56836 13.8214 2.62302 13.6471 2.72501 13.5005C2.827 13.3538 2.97142 13.2419 3.13887 13.1797L10.117 10.6422C10.2373 10.5979 10.3465 10.528 10.4371 10.4374C10.5278 10.3468 10.5977 10.2375 10.642 10.1172L13.1795 3.13912C13.2417 2.97166 13.3536 2.82724 13.5002 2.72525C13.6469 2.62327 13.8212 2.5686 13.9998 2.5686C14.1784 2.5686 14.3528 2.62327 14.4994 2.72525C14.646 2.82724 14.758 2.97166 14.8201 3.13912L17.3576 10.1172C17.4019 10.2375 17.4718 10.3468 17.5625 10.4374C17.6531 10.528 17.7623 10.5979 17.8826 10.6422L24.8607 13.1797C25.0282 13.2419 25.1726 13.3538 25.2746 13.5005C25.3766 13.6471 25.4313 13.8214 25.4313 14.0001C25.4313 14.1787 25.3766 14.353 25.2746 14.4997C25.1726 14.6463 25.0282 14.7582 24.8607 14.8204L17.8826 17.3579C17.7623 17.4022 17.6531 17.4721 17.5625 17.5627C17.4718 17.6534 17.4019 17.7626 17.3576 17.8829V17.8829Z" stroke="#173F37" stroke-width="1.5" stroke-linecap="round" stroke-linejoin="round"/>
</g>
</svg>
