<svg width="32" height="33" viewBox="0 0 32 33" fill="none" xmlns="http://www.w3.org/2000/svg">
<g id="TrainSimple">
<path id="Vector" d="M5.5 16.5H26.5" stroke="#173F37" stroke-width="2" stroke-linecap="round" stroke-linejoin="round"/>
<path id="Vector_2" d="M12 26.8125L9 30.9375" stroke="#173F37" stroke-width="2" stroke-linecap="round" stroke-linejoin="round"/>
<path id="Vector_3" d="M20 26.8125L23 30.9375" stroke="#173F37" stroke-width="2" stroke-linecap="round" stroke-linejoin="round"/>
<path id="Vector_4" d="M23.5 4.125H8.5C6.84315 4.125 5.5 5.51012 5.5 7.21875V23.7188C5.5 25.4274 6.84315 26.8125 8.5 26.8125H23.5C25.1569 26.8125 26.5 25.4274 26.5 23.7188V7.21875C26.5 5.51012 25.1569 4.125 23.5 4.125Z" stroke="#173F37" stroke-width="2" stroke-linecap="round" stroke-linejoin="round"/>
<path id="Vector_5" d="M11.9375 22.1719C11.9375 22.9935 11.2921 23.6562 10.5 23.6562C9.70789 23.6562 9.0625 22.9935 9.0625 22.1719C9.0625 21.3503 9.70789 20.6875 10.5 20.6875C11.2921 20.6875 11.9375 21.3503 11.9375 22.1719Z" fill="#2E335B" stroke="#173F37" stroke-width="0.125"/>
<path id="Vector_6" d="M22.9375 22.1719C22.9375 22.9935 22.2921 23.6562 21.5 23.6562C20.7079 23.6562 20.0625 22.9935 20.0625 22.1719C20.0625 21.3503 20.7079 20.6875 21.5 20.6875C22.2921 20.6875 22.9375 21.3503 22.9375 22.1719Z" fill="#2E335B" stroke="#173F37" stroke-width="0.125"/>
</g>
</svg>
